# Blender v2.79 (sub 0) OBJ File: ''
# www.blender.org
v -0.368262 6.909830 0.190232
v -0.368292 6.912407 0.189036
v -0.368292 6.794492 0.243772
v -0.368233 6.902213 0.193768
v -0.368207 6.889887 0.199490
v -0.368184 6.873393 0.207146
v -0.368166 6.853449 0.216404
v -0.368154 6.830930 0.226857
v -0.368148 6.806817 0.238050
v -0.368148 6.782166 0.249493
v -0.368154 6.758054 0.260686
v -0.368166 6.735534 0.271139
v -0.368184 6.715591 0.280397
v -0.368207 6.699096 0.288054
v -0.368233 6.686771 0.293775
v -0.368262 6.679153 0.297311
v -0.368292 6.676577 0.298507
v -0.368322 6.679153 0.297311
v -0.368350 6.686771 0.293775
v -0.368377 6.699096 0.288054
v -0.368399 6.715591 0.280397
v -0.368417 6.735534 0.271139
v -0.368429 6.758054 0.260686
v -0.368435 6.782166 0.249493
v -0.368435 6.806818 0.238050
v -0.368429 6.830930 0.226857
v -0.368417 6.853449 0.216404
v -0.368399 6.873393 0.207146
v -0.368377 6.889887 0.199490
v -0.368350 6.902213 0.193768
v -0.368322 6.909830 0.190232
v -0.368293 6.032405 -1.397973
vt 0.603956 0.010926
vt 0.500000 0.000000
vt 0.500000 0.500000
vt 0.703368 0.043227
vt 0.793893 0.095492
vt 0.871572 0.165435
vt 0.933013 0.250000
vt 0.975528 0.345492
vt 0.997261 0.447736
vt 0.997261 0.552264
vt 0.975528 0.654509
vt 0.933013 0.750000
vt 0.871572 0.834565
vt 0.793893 0.904509
vt 0.703368 0.956773
vt 0.603956 0.989074
vt 0.500000 1.000000
vt 0.396044 0.989074
vt 0.296632 0.956773
vt 0.206107 0.904508
vt 0.128428 0.834565
vt 0.066987 0.750000
vt 0.024472 0.654509
vt 0.002739 0.552264
vt 0.002739 0.447736
vt 0.024472 0.345491
vt 0.066987 0.250000
vt 0.128428 0.165435
vt 0.206108 0.095491
vt 0.296632 0.043227
vt 0.396044 0.010926
vt 0.000000 0.000000
vt 0.033333 0.000000
vt 0.033333 1.000000
vt 0.066667 0.000000
vt 0.066667 1.000000
vt 0.100000 0.000000
vt 0.100000 1.000000
vt 0.133333 0.000000
vt 0.133333 1.000000
vt 0.166667 0.000000
vt 0.166667 1.000000
vt 0.200000 0.000000
vt 0.200000 1.000000
vt 0.233333 0.000000
vt 0.233333 1.000000
vt 0.266667 0.000000
vt 0.266667 1.000000
vt 0.300000 0.000000
vt 0.300000 1.000000
vt 0.333333 0.000000
vt 0.333333 1.000000
vt 0.366667 0.000000
vt 0.366667 1.000000
vt 0.400000 0.000000
vt 0.400000 1.000000
vt 0.433333 0.000000
vt 0.433333 1.000000
vt 0.466667 0.000000
vt 0.466667 1.000000
vt 0.500000 0.000000
vt 0.500000 1.000000
vt 0.533333 0.000000
vt 0.533333 1.000000
vt 0.566667 0.000000
vt 0.566667 1.000000
vt 0.600000 0.000000
vt 0.600000 1.000000
vt 0.633333 0.000000
vt 0.633333 1.000000
vt 0.666667 0.000000
vt 0.666667 1.000000
vt 0.700000 0.000000
vt 0.700000 1.000000
vt 0.733333 0.000000
vt 0.733333 1.000000
vt 0.766667 0.000000
vt 0.766667 1.000000
vt 0.800000 0.000000
vt 0.800000 1.000000
vt 0.833333 0.000000
vt 0.833333 1.000000
vt 0.866667 0.000000
vt 0.866667 1.000000
vt 0.900000 0.000000
vt 0.900000 1.000000
vt 0.933333 0.000000
vt 0.933333 1.000000
vt 0.966667 0.000000
vt 0.966667 1.000000
vt 1.000000 0.000000
vt 1.000000 1.000000
vn -0.0009 0.4210 0.9070
vn -0.0000 0.4207 0.9072
vn 0.0008 0.4211 0.9070
vn 0.0010 0.4210 0.9070
vn -0.0010 0.4210 0.9070
vn -0.0009 0.4203 0.9074
vn -0.0000 0.4210 0.9070
vn 0.0009 0.4210 0.9070
vn 0.0004 0.4214 0.9069
vn 0.0000 0.4218 0.9067
vn -0.0006 0.4210 0.9071
vn -0.0005 0.4210 0.9070
vn -0.0000 0.8746 -0.4849
vn 1.0000 0.0046 -0.0025
vn 0.9999 0.0093 -0.0051
vn 1.0000 0.0045 -0.0025
vn 1.0000 0.0024 -0.0013
vn 1.0000 -0.0032 0.0009
vn 1.0000 0.0014 -0.0008
vn 1.0000 0.0009 -0.0005
vn 1.0000 0.0006 -0.0004
vn 1.0000 0.0003 -0.0002
vn 1.0000 0.0001 -0.0001
vn 1.0000 -0.0001 -0.0000
vn 1.0000 -0.0004 0.0001
vn 1.0000 -0.0006 0.0002
vn 1.0000 -0.0010 0.0003
vn 1.0000 -0.0015 0.0005
vn 1.0000 -0.0022 0.0008
vn 1.0000 -0.0049 0.0018
vn -0.0001 -0.9349 0.3549
vn -1.0000 -0.0049 0.0019
vn -0.9999 -0.0099 0.0038
vn -1.0000 -0.0049 0.0018
vn -1.0000 -0.0025 0.0009
vn -1.0000 0.0028 -0.0018
vn -1.0000 -0.0015 0.0006
vn -1.0000 -0.0010 0.0003
vn -1.0000 -0.0006 0.0002
vn -1.0000 -0.0004 0.0001
vn -1.0000 -0.0001 -0.0000
vn -1.0000 0.0001 -0.0001
vn -1.0000 0.0003 -0.0002
vn -1.0000 0.0006 -0.0004
vn -1.0000 0.0009 -0.0005
vn -1.0000 0.0014 -0.0008
vn -1.0000 0.0021 -0.0012
vn -1.0000 0.0046 -0.0026
s 1
f 1/1/1 2/2/2 3/3/3
f 4/4/4 1/1/1 3/3/3
f 5/5/5 4/4/4 3/3/3
f 6/6/6 5/5/5 3/3/3
f 7/7/7 6/6/6 3/3/3
f 8/8/7 7/7/7 3/3/3
f 9/9/7 8/8/7 3/3/3
f 10/10/7 9/9/7 3/3/3
f 11/11/7 10/10/7 3/3/3
f 12/12/7 11/11/7 3/3/3
f 13/13/7 12/12/7 3/3/3
f 14/14/7 13/13/7 3/3/3
f 15/15/7 14/14/7 3/3/3
f 16/16/8 15/15/7 3/3/3
f 17/17/9 16/16/8 3/3/3
f 18/18/10 17/17/9 3/3/3
f 19/19/7 18/18/10 3/3/3
f 20/20/7 19/19/7 3/3/3
f 21/21/7 20/20/7 3/3/3
f 22/22/7 21/21/7 3/3/3
f 23/23/7 22/22/7 3/3/3
f 24/24/7 23/23/7 3/3/3
f 25/25/11 24/24/7 3/3/3
f 26/26/12 25/25/11 3/3/3
f 27/27/12 26/26/12 3/3/3
f 28/28/4 27/27/12 3/3/3
f 29/29/4 28/28/4 3/3/3
f 30/30/5 29/29/4 3/3/3
f 31/31/8 30/30/5 3/3/3
f 2/2/2 31/31/8 3/3/3
f 2/32/13 1/33/14 32/34/15
f 1/33/16 4/35/17 32/36/18
f 4/35/17 5/37/19 32/38/18
f 5/37/19 6/39/20 32/40/18
f 6/39/20 7/41/21 32/42/18
f 7/41/21 8/43/22 32/44/18
f 8/43/22 9/45/23 32/46/18
f 9/45/23 10/47/24 32/48/18
f 10/47/24 11/49/25 32/50/18
f 11/49/25 12/51/26 32/52/18
f 12/51/26 13/53/27 32/54/18
f 13/53/27 14/55/28 32/56/18
f 14/55/28 15/57/29 32/58/18
f 15/57/29 16/59/30 32/60/18
f 16/59/30 17/61/31 32/62/18
f 17/61/31 18/63/32 32/64/33
f 18/63/34 19/65/35 32/66/36
f 19/65/35 20/67/37 32/68/36
f 20/67/37 21/69/38 32/70/36
f 21/69/38 22/71/39 32/72/36
f 22/71/39 23/73/40 32/74/36
f 23/73/40 24/75/41 32/76/36
f 24/75/41 25/77/42 32/78/36
f 25/77/42 26/79/43 32/80/36
f 26/79/43 27/81/44 32/82/36
f 27/81/44 28/83/45 32/84/36
f 28/83/45 29/85/46 32/86/36
f 29/85/46 30/87/47 32/88/36
f 30/87/47 31/89/48 32/90/36
f 31/89/48 2/91/13 32/92/36
v -0.368262 6.690803 0.170899
v -0.368292 6.688487 0.169271
v -0.368292 6.794492 0.243772
v -0.368233 6.697651 0.175712
v -0.368207 6.708732 0.183499
v -0.368185 6.723560 0.193921
v -0.368167 6.741489 0.206521
v -0.368155 6.761734 0.220750
v -0.368148 6.783411 0.235984
v -0.368148 6.805573 0.251559
v -0.368155 6.827249 0.266794
v -0.368167 6.847495 0.281022
v -0.368185 6.865423 0.293622
v -0.368207 6.880252 0.304044
v -0.368233 6.891333 0.311831
v -0.368262 6.898180 0.316644
v -0.368292 6.900497 0.318272
v -0.368322 6.898180 0.316644
v -0.368350 6.891333 0.311831
v -0.368376 6.880252 0.304044
v -0.368399 6.865423 0.293622
v -0.368416 6.847495 0.281022
v -0.368429 6.827249 0.266794
v -0.368435 6.805573 0.251559
v -0.368435 6.783411 0.235984
v -0.368429 6.761734 0.220750
v -0.368416 6.741489 0.206521
v -0.368399 6.723560 0.193921
v -0.368376 6.708732 0.183499
v -0.368350 6.697651 0.175712
v -0.368322 6.690803 0.170899
v -0.368291 5.757212 1.719694
vt 0.603956 0.010926
vt 0.500000 0.000000
vt 0.500000 0.500000
vt 0.703368 0.043227
vt 0.793893 0.095492
vt 0.871572 0.165435
vt 0.933013 0.250000
vt 0.975528 0.345492
vt 0.997261 0.447736
vt 0.997261 0.552264
vt 0.975528 0.654509
vt 0.933013 0.750000
vt 0.871572 0.834565
vt 0.793893 0.904509
vt 0.703368 0.956773
vt 0.603956 0.989074
vt 0.500000 1.000000
vt 0.396044 0.989074
vt 0.296632 0.956773
vt 0.206107 0.904508
vt 0.128428 0.834565
vt 0.066987 0.750000
vt 0.024472 0.654509
vt 0.002739 0.552264
vt 0.002739 0.447736
vt 0.024472 0.345491
vt 0.066987 0.250000
vt 0.128428 0.165435
vt 0.206108 0.095491
vt 0.296632 0.043227
vt 0.396044 0.010926
vt 0.000000 0.000000
vt 0.033333 0.000000
vt 0.033333 1.000000
vt 0.066667 0.000000
vt 0.066667 1.000000
vt 0.100000 0.000000
vt 0.100000 1.000000
vt 0.133333 0.000000
vt 0.133333 1.000000
vt 0.166667 0.000000
vt 0.166667 1.000000
vt 0.200000 0.000000
vt 0.200000 1.000000
vt 0.233333 0.000000
vt 0.233333 1.000000
vt 0.266667 0.000000
vt 0.266667 1.000000
vt 0.300000 0.000000
vt 0.300000 1.000000
vt 0.333333 0.000000
vt 0.333333 1.000000
vt 0.366667 0.000000
vt 0.366667 1.000000
vt 0.400000 0.000000
vt 0.400000 1.000000
vt 0.433333 0.000000
vt 0.433333 1.000000
vt 0.466667 0.000000
vt 0.466667 1.000000
vt 0.500000 0.000000
vt 0.500000 1.000000
vt 0.533333 0.000000
vt 0.533333 1.000000
vt 0.566667 0.000000
vt 0.566667 1.000000
vt 0.600000 0.000000
vt 0.600000 1.000000
vt 0.633333 0.000000
vt 0.633333 1.000000
vt 0.666667 0.000000
vt 0.666667 1.000000
vt 0.700000 0.000000
vt 0.700000 1.000000
vt 0.733333 0.000000
vt 0.733333 1.000000
vt 0.766667 0.000000
vt 0.766667 1.000000
vt 0.800000 0.000000
vt 0.800000 1.000000
vt 0.833333 0.000000
vt 0.833333 1.000000
vt 0.866667 0.000000
vt 0.866667 1.000000
vt 0.900000 0.000000
vt 0.900000 1.000000
vt 0.933333 0.000000
vt 0.933333 1.000000
vt 0.966667 0.000000
vt 0.966667 1.000000
vt 1.000000 0.000000
vt 1.000000 1.000000
vn 0.0000 0.5750 -0.8182
vn -0.0000 0.5750 -0.8181
vn 0.0000 0.5749 -0.8182
vn 0.0009 0.5750 -0.8182
vn 0.0010 0.5744 -0.8186
vn -0.0005 0.5750 -0.8182
vn 0.0003 0.5750 -0.8182
vn -0.0010 0.5750 -0.8182
vn 0.0019 0.5744 -0.8186
vn -0.0029 0.5756 -0.8177
vn 0.0029 0.5744 -0.8186
vn -0.0020 0.5757 -0.8177
vn 0.0009 0.5744 -0.8186
vn -0.0000 0.5756 -0.8177
vn 0.0005 0.5750 -0.8182
vn -0.0001 0.5750 -0.8182
vn 0.0002 0.5750 -0.8182
vn -0.0009 0.5750 -0.8182
vn -0.0000 -0.8573 -0.5149
vn 1.0000 -0.0045 -0.0027
vn 0.9999 -0.0091 -0.0055
vn 1.0000 -0.0023 -0.0014
vn 1.0000 0.0024 0.0023
vn 1.0000 -0.0014 -0.0008
vn 1.0000 -0.0009 -0.0005
vn 1.0000 -0.0006 -0.0003
vn 1.0000 -0.0004 -0.0001
vn 1.0000 -0.0002 -0.0000
vn 1.0000 0.0001 0.0001
vn 1.0000 0.0003 0.0003
vn 1.0000 0.0005 0.0005
vn 1.0000 0.0008 0.0007
vn 1.0000 0.0012 0.0010
vn 1.0000 0.0021 0.0017
vn 1.0000 0.0041 0.0034
vn -0.0001 0.7748 0.6322
vn -0.0002 0.7748 0.6322
vn -1.0000 0.0041 0.0033
vn -0.9999 0.0082 0.0067
vn -1.0000 0.0040 0.0033
vn -1.0000 0.0021 0.0017
vn -1.0000 -0.0029 -0.0015
vn -1.0000 0.0012 0.0010
vn -1.0000 0.0008 0.0007
vn -1.0000 0.0005 0.0005
vn -1.0000 0.0003 0.0003
vn -1.0000 0.0000 0.0001
vn -1.0000 -0.0001 0.0000
vn -1.0000 -0.0004 -0.0001
vn -1.0000 -0.0006 -0.0003
vn -1.0000 -0.0009 -0.0005
vn -1.0000 -0.0014 -0.0008
vn -1.0000 -0.0023 -0.0014
vn -1.0000 -0.0044 -0.0027
s 1
f 33/93/49 34/94/50 35/95/51
f 36/96/52 33/93/49 35/95/51
f 37/97/53 36/96/52 35/95/51
f 38/98/49 37/97/53 35/95/51
f 39/99/49 38/98/49 35/95/51
f 40/100/54 39/99/49 35/95/51
f 41/101/49 40/100/54 35/95/51
f 42/102/55 41/101/49 35/95/51
f 43/103/49 42/102/55 35/95/51
f 44/104/49 43/103/49 35/95/51
f 45/105/49 44/104/49 35/95/51
f 46/106/56 45/105/49 35/95/51
f 47/107/57 46/106/56 35/95/51
f 48/108/58 47/107/57 35/95/51
f 49/109/49 48/108/58 35/95/51
f 50/110/59 49/109/49 35/95/51
f 51/111/60 50/110/59 35/95/51
f 52/112/61 51/111/60 35/95/51
f 53/113/62 52/112/61 35/95/51
f 54/114/49 53/113/62 35/95/51
f 55/115/63 54/114/49 35/95/51
f 56/116/54 55/115/63 35/95/51
f 57/117/64 56/116/54 35/95/51
f 58/118/65 57/117/64 35/95/51
f 59/119/49 58/118/65 35/95/51
f 60/120/49 59/119/49 35/95/51
f 61/121/66 60/120/49 35/95/51
f 62/122/49 61/121/66 35/95/51
f 63/123/49 62/122/49 35/95/51
f 34/94/50 63/123/49 35/95/51
f 34/124/67 33/125/68 64/126/69
f 33/125/68 36/127/70 64/128/71
f 36/127/70 37/129/72 64/130/71
f 37/129/72 38/131/73 64/132/71
f 38/131/73 39/133/74 64/134/71
f 39/133/74 40/135/75 64/136/71
f 40/135/75 41/137/76 64/138/71
f 41/137/76 42/139/77 64/140/71
f 42/139/77 43/141/78 64/142/71
f 43/141/78 44/143/79 64/144/71
f 44/143/79 45/145/80 64/146/71
f 45/145/80 46/147/81 64/148/71
f 46/147/81 47/149/82 64/150/71
f 47/149/82 48/151/83 64/152/71
f 48/151/83 49/153/84 64/154/71
f 49/153/85 50/155/86 64/156/87
f 50/155/88 51/157/89 64/158/90
f 51/157/89 52/159/91 64/160/90
f 52/159/91 53/161/92 64/162/90
f 53/161/92 54/163/93 64/164/90
f 54/163/93 55/165/94 64/166/90
f 55/165/94 56/167/95 64/168/90
f 56/167/95 57/169/96 64/170/90
f 57/169/96 58/171/97 64/172/90
f 58/171/97 59/173/98 64/174/90
f 59/173/98 60/175/99 64/176/90
f 60/175/99 61/177/100 64/178/90
f 61/177/100 62/179/101 64/180/90
f 62/179/101 63/181/102 64/182/90
f 63/181/102 34/183/67 64/184/90
v -0.368262 6.783189 0.370427
v -0.368292 6.782937 0.373257
v -0.368292 6.794492 0.243772
v -0.368233 6.783936 0.362062
v -0.368207 6.785143 0.348528
v -0.368184 6.786760 0.330414
v -0.368166 6.788714 0.308514
v -0.368154 6.790921 0.283785
v -0.368148 6.793284 0.257307
v -0.368148 6.795700 0.230237
v -0.368154 6.798063 0.203758
v -0.368167 6.800270 0.179029
v -0.368184 6.802224 0.157129
v -0.368207 6.803840 0.139016
v -0.368233 6.805048 0.125481
v -0.368262 6.805795 0.117116
v -0.368292 6.806047 0.114286
v -0.368322 6.805795 0.117116
v -0.368351 6.805048 0.125481
v -0.368377 6.803840 0.139016
v -0.368399 6.802224 0.157129
v -0.368417 6.800270 0.179029
v -0.368429 6.798063 0.203758
v -0.368435 6.795700 0.230237
v -0.368435 6.793284 0.257307
v -0.368429 6.790921 0.283785
v -0.368417 6.788714 0.308514
v -0.368399 6.786760 0.330414
v -0.368377 6.785143 0.348528
v -0.368350 6.783936 0.362062
v -0.368322 6.783189 0.370427
v -0.368291 8.597327 0.404658
vt 0.603956 0.010926
vt 0.500000 0.000000
vt 0.500000 0.500000
vt 0.703368 0.043227
vt 0.793893 0.095492
vt 0.871572 0.165435
vt 0.933013 0.250000
vt 0.975528 0.345492
vt 0.997261 0.447736
vt 0.997261 0.552264
vt 0.975528 0.654509
vt 0.933013 0.750000
vt 0.871572 0.834565
vt 0.793893 0.904509
vt 0.703368 0.956773
vt 0.603956 0.989074
vt 0.500000 1.000000
vt 0.396044 0.989074
vt 0.296632 0.956773
vt 0.206107 0.904508
vt 0.128428 0.834565
vt 0.066987 0.750000
vt 0.024472 0.654509
vt 0.002739 0.552264
vt 0.002739 0.447736
vt 0.024472 0.345491
vt 0.066987 0.250000
vt 0.128428 0.165435
vt 0.206108 0.095491
vt 0.296632 0.043227
vt 0.396044 0.010926
vt 0.000000 0.000000
vt 0.033333 0.000000
vt 0.033333 1.000000
vt 0.066667 0.000000
vt 0.066667 1.000000
vt 0.100000 0.000000
vt 0.100000 1.000000
vt 0.133333 0.000000
vt 0.133333 1.000000
vt 0.166667 0.000000
vt 0.166667 1.000000
vt 0.200000 0.000000
vt 0.200000 1.000000
vt 0.233333 0.000000
vt 0.233333 1.000000
vt 0.266667 0.000000
vt 0.266667 1.000000
vt 0.300000 0.000000
vt 0.300000 1.000000
vt 0.333333 0.000000
vt 0.333333 1.000000
vt 0.366667 0.000000
vt 0.366667 1.000000
vt 0.400000 0.000000
vt 0.400000 1.000000
vt 0.433333 0.000000
vt 0.433333 1.000000
vt 0.466667 0.000000
vt 0.466667 1.000000
vt 0.500000 0.000000
vt 0.500000 1.000000
vt 0.533333 0.000000
vt 0.533333 1.000000
vt 0.566667 0.000000
vt 0.566667 1.000000
vt 0.600000 0.000000
vt 0.600000 1.000000
vt 0.633333 0.000000
vt 0.633333 1.000000
vt 0.666667 0.000000
vt 0.666667 1.000000
vt 0.700000 0.000000
vt 0.700000 1.000000
vt 0.733333 0.000000
vt 0.733333 1.000000
vt 0.766667 0.000000
vt 0.766667 1.000000
vt 0.800000 0.000000
vt 0.800000 1.000000
vt 0.833333 0.000000
vt 0.833333 1.000000
vt 0.866667 0.000000
vt 0.866667 1.000000
vt 0.900000 0.000000
vt 0.900000 1.000000
vt 0.933333 0.000000
vt 0.933333 1.000000
vt 0.966667 0.000000
vt 0.966667 1.000000
vt 1.000000 0.000000
vt 1.000000 1.000000
vn 0.0000 -0.9960 -0.0889
vn 0.0000 -0.9960 -0.0891
vn 0.0001 -0.9960 -0.0889
vn -0.0001 -0.9960 -0.0889
vn -0.0004 -0.9960 -0.0889
vn -0.0000 -0.9961 -0.0887
vn 0.0001 -0.9960 -0.0891
vn -0.0002 -0.9960 -0.0889
vn 0.0004 -0.9960 -0.0889
vn 0.0000 -0.0173 0.9999
vn 1.0000 -0.0001 0.0053
vn 0.9999 -0.0002 0.0106
vn 1.0000 -0.0001 0.0052
vn 1.0000 -0.0000 0.0024
vn 1.0000 0.0008 -0.0032
vn 1.0000 -0.0000 0.0016
vn 1.0000 0.0000 0.0011
vn 1.0000 0.0000 0.0007
vn 1.0000 0.0001 0.0004
vn 1.0000 0.0001 0.0001
vn 1.0000 0.0001 -0.0001
vn 1.0000 0.0001 -0.0004
vn 1.0000 0.0001 -0.0006
vn 1.0000 0.0002 -0.0010
vn 1.0000 0.0003 -0.0016
vn 1.0000 0.0005 -0.0027
vn 1.0000 0.0009 -0.0052
vn 0.0000 0.1600 -0.9871
vn -1.0000 0.0008 -0.0052
vn -0.9999 0.0017 -0.0105
vn -1.0000 0.0005 -0.0027
vn -1.0000 0.0002 0.0033
vn -1.0000 0.0003 -0.0016
vn -1.0000 0.0002 -0.0010
vn -1.0000 0.0002 -0.0006
vn -1.0000 0.0001 -0.0003
vn -1.0000 0.0001 -0.0001
vn -1.0000 0.0001 0.0001
vn -1.0000 0.0001 0.0004
vn -1.0000 0.0000 0.0007
vn -1.0000 0.0000 0.0010
vn -1.0000 -0.0000 0.0016
vn -1.0000 -0.0000 0.0027
vn -1.0000 -0.0001 0.0053
s 1
f 65/185/103 66/186/104 67/187/103
f 68/188/103 65/185/103 67/187/103
f 69/189/105 68/188/103 67/187/103
f 70/190/106 69/189/105 67/187/103
f 71/191/106 70/190/106 67/187/103
f 72/192/105 71/191/106 67/187/103
f 73/193/107 72/192/105 67/187/103
f 74/194/103 73/193/107 67/187/103
f 75/195/103 74/194/103 67/187/103
f 76/196/103 75/195/103 67/187/103
f 77/197/103 76/196/103 67/187/103
f 78/198/105 77/197/103 67/187/103
f 79/199/108 78/198/105 67/187/103
f 80/200/105 79/199/108 67/187/103
f 81/201/103 80/200/105 67/187/103
f 82/202/106 81/201/103 67/187/103
f 83/203/109 82/202/106 67/187/103
f 84/204/110 83/203/109 67/187/103
f 85/205/103 84/204/110 67/187/103
f 86/206/103 85/205/103 67/187/103
f 87/207/105 86/206/103 67/187/103
f 88/208/103 87/207/105 67/187/103
f 89/209/111 88/208/103 67/187/103
f 90/210/106 89/209/111 67/187/103
f 91/211/105 90/210/106 67/187/103
f 92/212/105 91/211/105 67/187/103
f 93/213/106 92/212/105 67/187/103
f 94/214/103 93/213/106 67/187/103
f 95/215/103 94/214/103 67/187/103
f 66/186/104 95/215/103 67/187/103
f 66/216/112 65/217/113 96/218/114
f 65/217/115 68/219/116 96/220/117
f 68/219/116 69/221/118 96/222/117
f 69/221/118 70/223/119 96/224/117
f 70/223/119 71/225/120 96/226/117
f 71/225/120 72/227/121 96/228/117
f 72/227/121 73/229/122 96/230/117
f 73/229/122 74/231/123 96/232/117
f 74/231/123 75/233/124 96/234/117
f 75/233/124 76/235/125 96/236/117
f 76/235/125 77/237/126 96/238/117
f 77/237/126 78/239/127 96/240/117
f 78/239/127 79/241/128 96/242/117
f 79/241/128 80/243/129 96/244/117
f 80/243/129 81/245/130 96/246/117
f 81/245/130 82/247/131 96/248/132
f 82/247/131 83/249/133 96/250/134
f 83/249/133 84/251/135 96/252/134
f 84/251/135 85/253/136 96/254/134
f 85/253/136 86/255/137 96/256/134
f 86/255/137 87/257/138 96/258/134
f 87/257/138 88/259/139 96/260/134
f 88/259/139 89/261/140 96/262/134
f 89/261/140 90/263/141 96/264/134
f 90/263/141 91/265/142 96/266/134
f 91/265/142 92/267/143 96/268/134
f 92/267/143 93/269/144 96/270/134
f 93/269/144 94/271/145 96/272/134
f 94/271/145 95/273/146 96/274/134
f 95/273/146 66/275/112 96/276/134
